<svg xmlns="http://www.w3.org/2000/svg" viewBox="0 0 512 512"><defs><linearGradient id="g" x1="0" y1="0" x2="1" y2="1"><stop offset="0%" stop-color="#6366f1"/><stop offset="100%" stop-color="#8b5cf6"/></linearGradient></defs><rect width="512" height="512" rx="110" fill="url(#g)"/><path d="M256 120c-52 0-96 38-96 90 0 30 14 57 36 75v27l20 10 20-10v-27c22-18 36-45 36-75 0-52-44-90-96-90zm0 30c36 0 66 27 66 60s-30 60-66 60-66-27-66-60 30-60 66-60z" fill="white" opacity="0.15"/><path d="M176 310h160v16H176zm0 32h160v16H176zm0 32h120v16H176z" fill="white" opacity="0.2"/><path fill="white" d="M224 200h64v80h-64z" opacity="0.1"/><g transform="translate(256,256)"><circle r="80" fill="none" stroke="white" stroke-width="12" opacity="0.9"/><path d="M-28-40 L0-56 L28-40 L28 8 L0 24 L-28 8 Z" fill="white" opacity="0.95"/><rect x="-16" y="8" width="32" height="36" rx="4" fill="white" opacity="0.95"/><circle cx="0" cy="24" r="5" fill="url(#g)"/></g></svg>
